<svg width="920" height="603" viewBox="0 0 920 603" fill="none" xmlns="http://www.w3.org/2000/svg">
<g clip-path="url(#clip0_26_4742)">
<path d="M920 594.124C920 596.845 915.693 596.845 915.752 594.124C915.752 591.344 920 591.344 920 594.124Z" fill="#464547"/>
<path d="M774.542 587.204C750.348 587.5 750.466 548.344 774.542 548.521C798.795 548.226 798.441 587.381 774.542 587.204ZM775.663 532.729C767.874 532.611 761.678 535.509 756.131 540.063V507L740.671 511.614V601.458H756.367V595.899C761.914 600.394 768.405 603.115 775.899 602.996C818.386 602.109 818.327 533.439 775.663 532.729Z" fill="#464547"/>
<path d="M840.691 560.647C834.082 558.577 827.946 555.737 828.477 551.775C828.477 547.753 832.548 546.215 836.384 546.215C842.816 546.156 845.589 549.468 844.881 556.625H860.342C864.059 525.158 813.665 522.497 813.134 551.597C812.898 575.079 843.937 570.643 846.77 581.999C846.297 590.871 826.116 590.043 826.824 579.87V576.38H811.364C810.007 591.64 820.156 603.055 837.682 602.937C870.845 601.34 869.075 566.561 840.691 560.647Z" fill="#464547"/>
<path d="M896.809 592.586H913.45V586.612H889.669C898.58 578.273 913.568 564.61 912.329 553.727C913.627 524.626 862.879 522.615 865.534 556.447H880.818V553.963C879.815 544.204 897.104 542.607 897.045 553.786C897.045 558.399 892.384 563.427 889.138 566.68C880.582 575.67 864.59 587.322 865.711 601.281H913.686V595.307H896.868C895.098 595.307 894.449 592.705 896.809 592.586Z" fill="#464547"/>
<path d="M458.666 564.669C458.666 571.885 453.414 577.09 446.628 577.09C442.674 577.09 439.783 575.493 437.836 573.068V586.672H434V552.722H437.836V556.27C439.724 553.845 442.615 552.248 446.628 552.248C453.414 552.248 458.666 557.513 458.666 564.669ZM437.659 564.669C437.659 569.756 441.199 573.541 446.215 573.541C451.349 573.541 454.83 569.579 454.83 564.669C454.83 559.76 451.349 555.797 446.215 555.797C441.14 555.797 437.659 559.583 437.659 564.669Z" fill="#464547"/>
<path d="M487.935 564.669C487.935 571.767 482.506 577.09 475.248 577.09C467.989 577.09 462.62 571.767 462.62 564.669C462.62 557.631 468.048 552.248 475.248 552.248C482.506 552.248 487.935 557.572 487.935 564.669ZM466.455 564.669C466.455 569.815 470.232 573.541 475.248 573.541C480.204 573.541 484.04 569.815 484.04 564.669C484.04 559.524 480.204 555.797 475.248 555.797C470.232 555.797 466.455 559.524 466.455 564.669Z" fill="#464547"/>
<path d="M520.095 572.713L527.353 552.722H531.306L522.396 576.617H517.911L510.712 556.744L503.572 576.617H499.146L490.236 552.722H494.248L501.448 572.654L508.588 552.722H512.836L520.095 572.713Z" fill="#464547"/>
<path d="M556.857 564.61C556.857 565.083 556.857 565.616 556.798 566.03H537.502C538.033 571.176 541.692 573.837 546 573.837C548.95 573.837 551.546 572.713 553.612 570.821L555.618 573.364C552.609 576.203 549.245 577.09 545.704 577.09C538.564 577.09 533.549 572.063 533.549 564.669C533.549 557.335 538.623 552.248 545.469 552.248C552.078 552.248 556.857 557.335 556.857 564.61ZM537.561 562.954H553.022C552.55 558.459 549.599 555.62 545.527 555.62C541.043 555.62 538.151 558.636 537.561 562.954Z" fill="#464547"/>
<path d="M577.982 553.077L577.038 556.803C575.858 556.153 574.265 555.857 572.849 555.857C569.072 555.857 566.417 558.755 566.417 563.309V576.677H562.64V552.781H566.417V556.153C568.069 553.727 570.606 552.308 573.557 552.308C575.268 552.249 576.684 552.485 577.982 553.077Z" fill="#464547"/>
<path d="M602.826 564.61C602.826 565.083 602.826 565.616 602.767 566.03H583.47C584.001 571.176 587.66 573.837 591.968 573.837C594.918 573.837 597.515 572.713 599.58 570.821L601.586 573.364C598.577 576.203 595.213 577.09 591.673 577.09C584.533 577.09 579.517 572.063 579.517 564.669C579.517 557.335 584.592 552.248 591.437 552.248C598.046 552.248 602.826 557.335 602.826 564.61ZM583.53 562.954H598.99C598.518 558.459 595.567 555.62 591.496 555.62C587.011 555.62 584.179 558.636 583.53 562.954Z" fill="#464547"/>
<path d="M627.609 556.27V540.3H631.386V576.617H627.609V573.068C625.721 575.493 622.771 577.09 618.817 577.09C612.031 577.09 606.779 571.826 606.779 564.669C606.779 557.512 612.031 552.248 618.817 552.248C622.771 552.248 625.662 553.845 627.609 556.27ZM610.674 564.669C610.674 569.638 614.155 573.541 619.289 573.541C624.305 573.541 627.845 569.697 627.845 564.669C627.845 559.642 624.305 555.797 619.289 555.797C614.096 555.797 610.674 559.76 610.674 564.669Z" fill="#464547"/>
<path d="M675.879 564.669C675.879 571.885 670.627 577.09 663.841 577.09C659.888 577.09 656.996 575.493 655.049 573.068V576.617H651.213V540.3H655.049V556.27C656.937 553.845 659.828 552.248 663.841 552.248C670.568 552.248 675.879 557.512 675.879 564.669ZM654.813 564.669C654.813 569.756 658.353 573.541 663.369 573.541C668.503 573.541 671.925 569.578 671.925 564.669C671.925 559.76 668.444 555.797 663.369 555.797C658.353 555.797 654.813 559.583 654.813 564.669Z" fill="#464547"/>
<path d="M683.196 586.791H679.006L687.976 571.412L676.941 552.722H681.19L690.159 567.686L698.657 552.722H702.846L683.196 586.791Z" fill="#464547"/>
<path d="M78.8571 114.5H860.857V294.429H78.8571V114.5Z" fill="#FFE802"/>
<path fill-rule="evenodd" clip-rule="evenodd" d="M524.439 85.6767L438.188 458H371.104L400.919 322.61H315.733C297.986 320.847 263.131 306.109 265.686 261.261C275.057 221.49 290.887 154.43 297.631 125.871C299.761 113.883 312.113 89.0614 344.483 85.6767H524.439ZM329.576 291.935L370.039 115.293H447.771L406.243 291.935H329.576Z" fill="#464547"/>
<path fill-rule="evenodd" clip-rule="evenodd" d="M196.473 294.051L190.084 322.61H63.3697C46.8523 322.61 14.6008 299.974 19.7119 260.204C27.3787 222.125 43.493 151.962 50.5918 121.64C54.4962 110.005 68.6939 86.5232 94.2496 85.677C119.805 84.8308 180.145 85.3244 207.121 85.677C225.743 85.9204 256.623 103.658 252.908 133.275C247.797 165.43 239.421 203.085 235.871 217.894H96.3793L80.4069 294.051H196.473ZM103.833 189.335L121.935 115.293H197.538L179.436 189.335H103.833Z" fill="#464547"/>
<path d="M593.652 40.194L602.171 0H670.32L659.671 40.194H593.652Z" fill="#464547"/>
<path d="M653.282 84.6189H585.134L531.892 320.494H598.976L653.282 84.6189Z" fill="#464547"/>
<path fill-rule="evenodd" clip-rule="evenodd" d="M627.727 456.942L715.042 84.6189H870.507C890.193 84.6189 924.6 102.6 919.489 144.91C910.97 187.219 895.353 252.094 888.609 279.242C885.718 290.878 871.026 323.667 842.821 323.667H728.885L696.94 456.942H627.727ZM857.729 115.293H775.737L736.339 290.878H818.33L857.729 115.293Z" fill="#464547"/>
<path d="M65.365 370.924C50.2717 370.924 38.6467 382.932 38.6467 398.07C38.6467 413.207 50.2717 425.21 65.365 425.21C80.4586 425.21 92.0836 413.207 92.0836 398.07C92.0836 382.932 80.4586 370.924 65.365 370.924ZM65.365 414.563C56.29 414.563 49.9654 407.37 49.9654 398.07C49.9654 388.769 56.29 381.576 65.365 381.576C74.34 381.576 80.6592 388.769 80.6592 398.07C80.6592 407.37 74.34 414.563 65.365 414.563Z" fill="#464547"/>
<path d="M145.619 410.386L137.257 405.792C137.159 405.733 137.049 405.697 136.936 405.687C136.823 405.676 136.708 405.691 136.602 405.731C136.495 405.771 136.397 405.834 136.317 405.917C136.237 405.999 136.176 406.099 136.137 406.209C134.858 408.751 132.913 410.879 130.519 412.354C128.126 413.83 125.379 414.595 122.585 414.563C113.505 414.563 107.08 407.37 107.08 398.07C107.08 388.769 113.505 381.576 122.585 381.576C125.379 381.539 128.127 382.303 130.521 383.777C132.915 385.252 134.86 387.381 136.137 389.925C136.175 390.035 136.236 390.136 136.316 390.219C136.396 390.302 136.493 390.366 136.601 390.406C136.708 390.445 136.822 390.46 136.936 390.449C137.049 390.439 137.159 390.401 137.257 390.341L145.619 385.748C145.721 385.702 145.811 385.633 145.884 385.547C145.956 385.461 146.009 385.359 146.038 385.25C146.068 385.14 146.073 385.025 146.053 384.913C146.034 384.801 145.99 384.695 145.925 384.602C141.438 376.247 132.875 370.924 122.575 370.924C107.276 370.924 95.6507 382.619 95.6507 398.07C95.6507 413.52 107.276 425.21 122.575 425.21C132.875 425.21 141.543 419.887 146.031 411.429C146.108 411.235 146.109 411.017 146.032 410.822C145.955 410.627 145.807 410.471 145.619 410.386Z" fill="#464547"/>
<path d="M37.3194 413.727H11.2184V372.805C11.2034 372.588 11.1123 372.384 10.9619 372.23C10.8117 372.077 10.6122 371.983 10.4001 371.968H0.813244C0.601566 371.982 0.403066 372.077 0.253651 372.231C0.10387 372.385 0.0138713 372.589 0 372.805V414.564C0 420.514 3.56892 424.168 9.38124 424.168H37.3194C37.5314 424.153 37.7306 424.06 37.8804 423.906C38.0298 423.752 38.1198 423.547 38.1326 423.33V414.564C38.1198 414.347 38.0298 414.143 37.8804 413.988C37.7306 413.834 37.5314 413.741 37.3194 413.727Z" fill="#464547"/>
<path d="M291.251 413.725H264.493L290.845 381.678C291.112 381.357 291.254 380.948 291.251 380.527V372.82C291.237 372.602 291.148 372.397 290.995 372.243C290.845 372.089 290.646 371.996 290.433 371.982H251.282C251.069 371.996 250.869 372.089 250.719 372.243C250.568 372.397 250.477 372.602 250.463 372.82V381.591C250.478 381.807 250.568 382.012 250.719 382.165C250.87 382.318 251.07 382.41 251.282 382.423H276.747L250.463 414.579C250.199 414.899 250.055 415.305 250.057 415.724V423.329C250.07 423.546 250.159 423.75 250.309 423.904C250.459 424.059 250.658 424.152 250.87 424.166H291.258C291.468 424.152 291.667 424.059 291.816 423.904C291.966 423.75 292.055 423.546 292.069 423.329V414.563C292.055 414.345 291.966 414.14 291.816 413.986C291.663 413.831 291.464 413.739 291.251 413.725Z" fill="#464547"/>
<path d="M241.689 353.284H232.103C231.891 353.299 231.693 353.391 231.543 353.544C231.394 353.697 231.303 353.9 231.289 354.116V364.141C231.303 364.357 231.394 364.56 231.543 364.714C231.693 364.867 231.891 364.959 232.103 364.974H235.772C236.663 365.003 237.551 364.845 238.381 364.509C239.211 364.173 239.964 363.666 240.595 363.021C241.226 362.375 241.72 361.603 242.048 360.754C242.377 359.905 242.531 358.996 242.503 358.083V354.116C242.489 353.9 242.399 353.697 242.249 353.544C242.099 353.391 241.9 353.298 241.689 353.284Z" fill="#464547"/>
<path d="M346.314 371.967H336.727C336.517 371.982 336.318 372.076 336.168 372.23C336.019 372.384 335.93 372.588 335.916 372.805V379.007C333.063 374.798 326.976 370.924 319.597 370.924C305.627 370.924 295 383.138 295 398.07C295 413.001 305.609 425.21 319.597 425.21C326.976 425.21 333.063 421.341 335.916 417.133V423.329C335.93 423.546 336.019 423.751 336.168 423.905C336.318 424.059 336.517 424.152 336.727 424.167H346.314C346.528 424.152 346.727 424.06 346.88 423.906C347.03 423.751 347.118 423.547 347.133 423.329V372.805C347.118 372.587 347.026 372.383 346.877 372.23C346.727 372.076 346.528 371.983 346.314 371.967ZM321.636 414.769C312.667 414.769 306.442 407.462 306.442 398.07C306.442 388.677 312.667 381.365 321.636 381.365C330.604 381.365 336.834 388.672 336.834 398.07C336.834 407.468 330.611 414.769 321.636 414.769Z" fill="#464547"/>
<path d="M200.202 371.967H190.616C190.404 371.982 190.205 372.076 190.056 372.23C189.906 372.384 189.816 372.588 189.802 372.805V379.007C186.946 374.798 180.858 370.924 173.484 370.924C159.51 370.924 148.889 383.138 148.889 398.07C148.889 413.001 159.495 425.21 173.484 425.21C180.858 425.21 186.946 421.341 189.802 417.133V423.329C189.815 423.546 189.905 423.751 190.055 423.905C190.204 424.059 190.404 424.152 190.616 424.167H200.202C200.414 424.152 200.614 424.059 200.763 423.905C200.913 423.751 201.003 423.546 201.016 423.329V372.805C201.002 372.588 200.912 372.384 200.762 372.23C200.613 372.076 200.414 371.983 200.202 371.967ZM175.522 414.769C166.547 414.769 160.328 407.462 160.328 398.07C160.328 388.677 166.547 381.365 175.522 381.365C184.497 381.365 190.716 388.672 190.716 398.07C190.716 407.468 184.477 414.769 175.502 414.769H175.522Z" fill="#464547"/>
<path d="M241.689 371.968H232.108C231.655 371.968 231.289 372.343 231.289 372.805V423.325C231.289 423.788 231.655 424.162 232.108 424.162H241.689C242.141 424.162 242.508 423.788 242.508 423.325V372.805C242.508 372.343 242.141 371.968 241.689 371.968Z" fill="#464547"/>
<path d="M220.98 353.284H211.398C210.946 353.284 210.58 353.659 210.58 354.122V423.329C210.58 423.792 210.946 424.167 211.398 424.167H220.98C221.432 424.167 221.798 423.792 221.798 423.329V354.122C221.798 353.659 221.432 353.284 220.98 353.284Z" fill="#464547"/>
</g>
<defs>
<clipPath id="clip0_26_4742">
<rect width="920" height="603" fill="white"/>
</clipPath>
</defs>
</svg>
