<svg width="834" height="546" viewBox="0 0 834 546" fill="none" xmlns="http://www.w3.org/2000/svg">
<g clip-path="url(#clip0_662_4142)">
<path d="M833.5 537.963C833.5 540.427 829.6 540.427 829.653 537.963C829.653 535.446 833.5 535.446 833.5 537.963Z" fill="#464547"/>
<path d="M701.797 531.697C679.892 531.965 679.998 496.511 701.797 496.671C723.757 496.404 723.436 531.858 701.797 531.697ZM702.813 482.372C695.76 482.265 690.15 484.889 685.128 489.013V459.075L671.129 463.252V544.604H685.341V539.57C690.364 543.64 696.241 546.104 703.026 545.997C741.495 545.193 741.442 483.014 702.813 482.372Z" fill="#464547"/>
<path d="M761.691 507.65C755.707 505.776 750.151 503.205 750.632 499.617C750.632 495.975 754.318 494.583 757.791 494.583C763.615 494.529 766.126 497.528 765.485 504.008H779.483C782.849 475.517 737.221 473.106 736.74 499.456C736.526 520.718 764.63 516.701 767.195 526.984C766.767 535.018 748.494 534.268 749.135 525.056V521.896H735.137C733.908 535.714 743.098 546.05 758.967 545.943C788.994 544.497 787.391 513.006 761.691 507.65Z" fill="#464547"/>
<path d="M812.502 536.571H827.569V531.162H806.037C814.105 523.61 827.676 511.239 826.554 501.384C827.73 475.035 781.781 473.214 784.185 503.848H798.023V501.598C797.115 492.762 812.769 491.316 812.716 501.438C812.716 505.615 808.495 510.168 805.557 513.113C797.809 521.254 783.33 531.804 784.345 544.444H827.783V539.034H812.556C810.953 539.034 810.365 536.678 812.502 536.571Z" fill="#464547"/>
<path d="M415.792 511.293C415.792 517.827 411.037 522.54 404.892 522.54C401.313 522.54 398.695 521.094 396.932 518.898V531.216H393.459V500.474H396.932V503.688C398.641 501.492 401.259 500.046 404.892 500.046C411.037 500.046 415.792 504.812 415.792 511.293ZM396.771 511.293C396.771 515.899 399.977 519.326 404.518 519.326C409.167 519.326 412.319 515.738 412.319 511.293C412.319 506.848 409.167 503.259 404.518 503.259C399.924 503.259 396.771 506.687 396.771 511.293Z" fill="#464547"/>
<path d="M442.293 511.293C442.293 517.72 437.378 522.54 430.806 522.54C424.234 522.54 419.372 517.72 419.372 511.293C419.372 504.92 424.287 500.046 430.806 500.046C437.378 500.046 442.293 504.866 442.293 511.293ZM422.845 511.293C422.845 515.952 426.264 519.326 430.806 519.326C435.294 519.326 438.767 515.952 438.767 511.293C438.767 506.633 435.294 503.259 430.806 503.259C426.264 503.259 422.845 506.633 422.845 511.293Z" fill="#464547"/>
<path d="M471.412 518.576L477.983 500.474H481.563L473.495 522.111H469.435L462.916 504.116L456.452 522.111H452.444L444.377 500.474H448.01L454.528 518.523L460.993 500.474H464.84L471.412 518.576Z" fill="#464547"/>
<path d="M504.698 511.239C504.698 511.668 504.698 512.15 504.645 512.525H487.173C487.654 517.184 490.967 519.594 494.867 519.594C497.538 519.594 499.889 518.576 501.759 516.863L503.576 519.166C500.851 521.736 497.806 522.54 494.6 522.54C488.135 522.54 483.594 517.987 483.594 511.293C483.594 504.652 488.188 500.046 494.386 500.046C500.37 500.046 504.698 504.652 504.698 511.239ZM487.227 509.74H501.225C500.798 505.669 498.126 503.099 494.44 503.099C490.379 503.099 487.761 505.83 487.227 509.74Z" fill="#464547"/>
<path d="M523.826 500.796L522.971 504.17C521.902 503.581 520.459 503.313 519.177 503.313C515.758 503.313 513.353 505.937 513.353 510.061V522.165H509.934V500.528H513.353V503.581C514.849 501.385 517.147 500.1 519.818 500.1C521.368 500.046 522.65 500.26 523.826 500.796Z" fill="#464547"/>
<path d="M546.319 511.239C546.319 511.668 546.319 512.15 546.266 512.525H528.794C529.275 517.184 532.588 519.594 536.488 519.594C539.16 519.594 541.511 518.576 543.381 516.863L545.197 519.166C542.472 521.736 539.427 522.54 536.221 522.54C529.756 522.54 525.215 517.987 525.215 511.293C525.215 504.652 529.81 500.046 536.007 500.046C541.991 500.046 546.319 504.652 546.319 511.239ZM528.848 509.74H542.846C542.419 505.669 539.747 503.099 536.061 503.099C532 503.099 529.436 505.83 528.848 509.74Z" fill="#464547"/>
<path d="M568.759 503.688V489.227H572.179V522.111H568.759V518.898C567.05 521.093 564.378 522.539 560.798 522.539C554.654 522.539 549.899 517.773 549.899 511.293C549.899 504.812 554.654 500.046 560.798 500.046C564.378 500.046 566.996 501.492 568.759 503.688ZM553.425 511.293C553.425 515.791 556.577 519.326 561.226 519.326C565.767 519.326 568.973 515.845 568.973 511.293C568.973 506.74 565.767 503.259 561.226 503.259C556.524 503.259 553.425 506.847 553.425 511.293Z" fill="#464547"/>
<path d="M612.464 511.293C612.464 517.826 607.709 522.539 601.565 522.539C597.985 522.539 595.367 521.093 593.604 518.898V522.111H590.131V489.227H593.604V503.688C595.314 501.492 597.932 500.046 601.565 500.046C607.656 500.046 612.464 504.812 612.464 511.293ZM593.39 511.293C593.39 515.898 596.596 519.326 601.137 519.326C605.786 519.326 608.885 515.738 608.885 511.293C608.885 506.847 605.732 503.259 601.137 503.259C596.596 503.259 593.39 506.687 593.39 511.293Z" fill="#464547"/>
<path d="M619.09 531.323H615.296L623.417 517.398L613.426 500.474H617.273L625.394 514.024L633.088 500.474H636.881L619.09 531.323Z" fill="#464547"/>
<path d="M71.9 103.677H779.95V266.597H71.9V103.677Z" fill="white"/>
<path fill-rule="evenodd" clip-rule="evenodd" d="M475.345 77.5779L397.251 414.706H336.51L363.506 292.114H286.376C270.307 290.518 238.748 277.173 241.062 236.565C249.546 200.553 263.879 139.832 269.985 113.972C271.914 103.118 283.098 80.6427 312.407 77.5779H475.345ZM298.909 264.339L335.546 104.395H405.928L368.327 264.339H298.909Z" fill="#464547"/>
<path fill-rule="evenodd" clip-rule="evenodd" d="M178.393 266.255L172.608 292.115H57.8772C42.9217 292.115 13.7201 271.619 18.3479 235.607C25.2896 201.128 39.8801 137.597 46.3076 110.142C49.8428 99.6065 62.6978 78.3444 85.8369 77.5782C108.976 76.812 163.61 77.2589 188.035 77.5782C204.895 77.7986 232.855 93.8597 229.492 120.677C224.864 149.792 217.28 183.888 214.066 197.297H87.7651L73.3032 266.255H178.393ZM94.5141 171.438L110.904 104.395H179.357L162.967 171.438H94.5141Z" fill="#464547"/>
<path d="M538.013 36.3946L545.726 0H607.431L597.789 36.3946H538.013Z" fill="#464547"/>
<path d="M592.005 76.6201H530.3L482.094 290.199H542.834L592.005 76.6201Z" fill="#464547"/>
<path fill-rule="evenodd" clip-rule="evenodd" d="M568.866 413.749L647.924 76.6201H788.687C806.512 76.6201 837.665 92.9019 833.037 131.212C825.324 169.522 811.183 228.264 805.077 252.846C802.46 263.382 789.157 293.072 763.62 293.072H660.458L631.534 413.749H568.866ZM777.117 104.395H702.879L667.207 263.382H741.445L777.117 104.395Z" fill="#464547"/>
<path d="M59.6837 335.861C46.0178 335.861 35.4921 346.735 35.4921 360.441C35.4921 374.148 46.0178 385.016 59.6837 385.016C73.35 385.016 83.8757 374.148 83.8757 360.441C83.8757 346.735 73.35 335.861 59.6837 335.861ZM59.6837 375.376C51.4669 375.376 45.7404 368.862 45.7404 360.441C45.7404 352.02 51.4669 345.506 59.6837 345.506C67.81 345.506 73.5317 352.02 73.5317 360.441C73.5317 368.862 67.81 375.376 59.6837 375.376Z" fill="#464547"/>
<path d="M132.349 371.593L124.777 367.434C124.688 367.38 124.589 367.348 124.487 367.338C124.384 367.328 124.28 367.342 124.184 367.378C124.087 367.414 123.999 367.472 123.926 367.546C123.854 367.621 123.798 367.712 123.764 367.811C122.605 370.113 120.844 372.04 118.677 373.376C116.51 374.712 114.022 375.404 111.493 375.376C103.271 375.376 97.454 368.862 97.454 360.441C97.454 352.02 103.271 345.506 111.493 345.506C114.023 345.473 116.511 346.164 118.678 347.5C120.846 348.836 122.607 350.763 123.764 353.067C123.798 353.166 123.853 353.257 123.925 353.333C123.998 353.408 124.086 353.465 124.183 353.502C124.28 353.538 124.384 353.551 124.486 353.541C124.589 353.531 124.689 353.498 124.777 353.443L132.349 349.284C132.441 349.243 132.523 349.18 132.588 349.102C132.654 349.024 132.702 348.932 132.728 348.833C132.755 348.734 132.759 348.63 132.742 348.528C132.724 348.426 132.684 348.33 132.626 348.247C128.563 340.682 120.809 335.862 111.484 335.862C97.6311 335.862 87.1055 346.451 87.1055 360.441C87.1055 374.431 97.6311 385.016 111.484 385.016C120.809 385.016 128.658 380.196 132.721 372.538C132.792 372.362 132.792 372.165 132.722 371.988C132.652 371.812 132.519 371.67 132.349 371.593Z" fill="#464547"/>
<path d="M34.2902 374.618H10.6575V337.565C10.644 337.368 10.5615 337.184 10.4253 337.044C10.2893 336.905 10.1086 336.821 9.91665 336.807H1.23634C1.04468 336.82 0.86495 336.905 0.729664 337.045C0.594047 337.184 0.51256 337.369 0.5 337.565V375.376C0.5 380.764 3.73143 384.072 8.9941 384.072H34.2902C34.4822 384.059 34.6626 383.975 34.7982 383.835C34.9335 383.695 35.015 383.51 35.0266 383.314V375.376C35.015 375.18 34.9335 374.995 34.7982 374.855C34.6626 374.716 34.4822 374.631 34.2902 374.618Z" fill="#464547"/>
<path d="M264.209 374.617H239.981L263.841 345.599C264.083 345.308 264.212 344.938 264.209 344.557V337.578C264.196 337.381 264.115 337.196 263.977 337.056C263.841 336.917 263.661 336.833 263.468 336.819H228.019C227.827 336.833 227.646 336.917 227.509 337.056C227.373 337.196 227.291 337.381 227.278 337.578V345.52C227.291 345.716 227.373 345.901 227.51 346.04C227.646 346.179 227.827 346.262 228.019 346.274H251.076L227.278 375.39C227.039 375.679 226.908 376.047 226.91 376.427V383.313C226.922 383.509 227.003 383.694 227.139 383.834C227.274 383.974 227.454 384.058 227.646 384.071H264.215C264.405 384.058 264.585 383.974 264.721 383.834C264.856 383.694 264.936 383.509 264.949 383.313V375.375C264.936 375.178 264.856 374.992 264.721 374.853C264.582 374.713 264.402 374.629 264.209 374.617Z" fill="#464547"/>
<path d="M219.334 319.889H210.654C210.462 319.902 210.283 319.986 210.147 320.124C210.012 320.263 209.93 320.447 209.917 320.643V329.72C209.93 329.915 210.012 330.1 210.147 330.238C210.283 330.377 210.462 330.46 210.654 330.474H213.976C214.783 330.5 215.587 330.357 216.338 330.053C217.09 329.749 217.772 329.29 218.343 328.705C218.914 328.12 219.362 327.422 219.659 326.653C219.956 325.884 220.096 325.061 220.07 324.234V320.643C220.058 320.447 219.976 320.263 219.84 320.124C219.705 319.986 219.525 319.902 219.334 319.889Z" fill="#464547"/>
<path d="M314.065 336.806H305.384C305.194 336.819 305.014 336.905 304.878 337.044C304.743 337.184 304.663 337.368 304.65 337.564V343.18C302.066 339.37 296.555 335.861 289.875 335.861C277.225 335.861 267.604 346.921 267.604 360.441C267.604 373.961 277.209 385.016 289.875 385.016C296.555 385.016 302.066 381.512 304.65 377.702V383.313C304.663 383.509 304.743 383.695 304.878 383.835C305.014 383.974 305.194 384.058 305.384 384.072H314.065C314.258 384.058 314.439 383.974 314.577 383.835C314.713 383.695 314.793 383.51 314.806 383.313V337.564C314.793 337.368 314.709 337.183 314.574 337.044C314.439 336.905 314.258 336.82 314.065 336.806ZM291.72 375.562C283.6 375.562 277.963 368.946 277.963 360.441C277.963 351.936 283.6 345.316 291.72 345.316C299.841 345.316 305.481 351.932 305.481 360.441C305.481 368.951 299.847 375.562 291.72 375.562Z" fill="#464547"/>
<path d="M181.77 336.806H173.09C172.898 336.819 172.719 336.905 172.583 337.044C172.448 337.184 172.366 337.368 172.354 337.564V343.18C169.768 339.37 164.255 335.861 157.579 335.861C144.926 335.861 135.309 346.921 135.309 360.441C135.309 373.961 144.912 385.016 157.579 385.016C164.255 385.016 169.768 381.512 172.354 377.702V383.313C172.365 383.509 172.446 383.695 172.582 383.835C172.718 383.974 172.898 384.058 173.09 384.072H181.77C181.962 384.058 182.143 383.974 182.278 383.835C182.414 383.695 182.495 383.509 182.507 383.313V337.564C182.494 337.368 182.412 337.183 182.277 337.044C182.142 336.905 181.962 336.82 181.77 336.806ZM159.424 375.562C151.298 375.562 145.667 368.946 145.667 360.441C145.667 351.936 151.298 345.316 159.424 345.316C167.55 345.316 173.181 351.932 173.181 360.441C173.181 368.951 167.532 375.562 159.406 375.562H159.424Z" fill="#464547"/>
<path d="M219.334 336.807H210.658C210.249 336.807 209.917 337.146 209.917 337.565V383.309C209.917 383.728 210.249 384.067 210.658 384.067H219.334C219.743 384.067 220.075 383.728 220.075 383.309V337.565C220.075 337.146 219.743 336.807 219.334 336.807Z" fill="#464547"/>
<path d="M200.583 319.889H191.907C191.498 319.889 191.166 320.229 191.166 320.647V383.313C191.166 383.732 191.498 384.071 191.907 384.071H200.583C200.992 384.071 201.324 383.732 201.324 383.313V320.647C201.324 320.229 200.992 319.889 200.583 319.889Z" fill="#464547"/>
</g>
<defs>
<clipPath id="clip0_662_4142">
<rect width="833" height="546" fill="white" transform="translate(0.5)"/>
</clipPath>
</defs>
</svg>
