<svg width="1024" height="1024" viewBox="0 0 1024 1024" fill="none" xmlns="http://www.w3.org/2000/svg">
<path d="M0 0H1024V1024H0V0Z" fill="#FFE802"/>
<path d="M869.31 72.0562L834.574 121.617L823.104 113.578L837.346 93.258L814.831 77.4776L800.589 97.7975L789.119 89.7584L823.856 40.1976L835.326 48.2367L821.63 67.7778L844.144 83.5582L857.841 64.0171L869.31 72.0562Z" fill="#464547"/>
<path d="M889.781 160.312L910.553 130.526L878.798 144.8L873.629 141.178L875.838 107.145L855.443 136.244L844.681 128.701L879.418 79.1404L888.905 85.7901L885.869 129.59L925.722 111.594L935.138 118.194L900.543 167.855L889.781 160.312Z" fill="#464547"/>
<path d="M945.42 125.401L956.89 133.44L928.704 173.655L953.555 191.073L947.004 200.419L910.683 174.962L945.42 125.401Z" fill="#464547"/>
<path d="M920.5 770.963C920.5 773.427 916.6 773.427 916.653 770.963C916.653 768.446 920.5 768.446 920.5 770.963Z" fill="#464547"/>
<path d="M788.797 764.697C766.892 764.965 766.998 729.511 788.797 729.671C810.757 729.403 810.436 764.858 788.797 764.697ZM789.813 715.372C782.76 715.265 777.15 717.889 772.128 722.013V692.075L758.129 696.252V777.604H772.341V772.57C777.364 776.64 783.241 779.104 790.026 778.997C828.495 778.193 828.442 716.014 789.813 715.372Z" fill="#464547"/>
<path d="M848.691 740.65C842.707 738.776 837.151 736.205 837.632 732.617C837.632 728.975 841.318 727.583 844.791 727.583C850.615 727.529 853.126 730.528 852.485 737.008H866.483C869.849 708.516 824.221 706.106 823.74 732.456C823.526 753.718 851.63 749.701 854.195 759.984C853.767 768.018 835.494 767.268 836.135 758.056V754.896H822.137C820.908 768.714 830.098 779.05 845.966 778.943C875.994 777.497 874.391 746.006 848.691 740.65Z" fill="#464547"/>
<path d="M899.502 769.571H914.569V764.162H893.037C901.105 756.61 914.676 744.239 913.554 734.384C914.73 708.034 868.781 706.214 871.185 736.848H885.023V734.598C884.115 725.762 899.769 724.316 899.716 734.438C899.716 738.615 895.495 743.167 892.557 746.113C884.809 754.254 870.33 764.804 871.345 777.444H914.783V772.034H899.556C897.953 772.034 897.365 769.678 899.502 769.571Z" fill="#464547"/>
<path d="M502.792 744.293C502.792 750.827 498.037 755.539 491.892 755.539C488.313 755.539 485.695 754.093 483.932 751.898V764.216H480.459V733.474H483.932V736.688C485.641 734.492 488.259 733.046 491.892 733.046C498.037 733.046 502.792 737.812 502.792 744.293ZM483.771 744.293C483.771 748.898 486.977 752.326 491.518 752.326C496.167 752.326 499.319 748.738 499.319 744.293C499.319 739.847 496.167 736.259 491.518 736.259C486.924 736.259 483.771 739.687 483.771 744.293Z" fill="#464547"/>
<path d="M529.293 744.293C529.293 750.719 524.378 755.539 517.806 755.539C511.234 755.539 506.372 750.719 506.372 744.293C506.372 737.919 511.287 733.046 517.806 733.046C524.378 733.046 529.293 737.866 529.293 744.293ZM509.845 744.293C509.845 748.952 513.264 752.326 517.806 752.326C522.294 752.326 525.767 748.952 525.767 744.293C525.767 739.633 522.294 736.259 517.806 736.259C513.264 736.259 509.845 739.633 509.845 744.293Z" fill="#464547"/>
<path d="M558.412 751.576L564.983 733.474H568.563L560.495 755.111H556.435L549.916 737.116L543.452 755.111H539.444L531.377 733.474H535.01L541.528 751.523L547.993 733.474H551.84L558.412 751.576Z" fill="#464547"/>
<path d="M591.698 744.239C591.698 744.668 591.698 745.15 591.645 745.524H574.173C574.654 750.184 577.967 752.594 581.867 752.594C584.538 752.594 586.889 751.576 588.759 749.862L590.576 752.165C587.851 754.736 584.806 755.539 581.6 755.539C575.135 755.539 570.594 750.987 570.594 744.293C570.594 737.652 575.188 733.046 581.386 733.046C587.37 733.046 591.698 737.652 591.698 744.239ZM574.227 742.74H588.225C587.798 738.669 585.126 736.099 581.44 736.099C577.379 736.099 574.761 738.83 574.227 742.74Z" fill="#464547"/>
<path d="M610.825 733.796L609.971 737.17C608.902 736.581 607.459 736.313 606.177 736.313C602.758 736.313 600.353 738.937 600.353 743.061V755.165H596.934V733.528H600.353V736.581C601.849 734.385 604.147 733.1 606.818 733.1C608.368 733.046 609.65 733.26 610.825 733.796Z" fill="#464547"/>
<path d="M633.319 744.239C633.319 744.668 633.319 745.15 633.266 745.524H615.794C616.275 750.184 619.588 752.594 623.488 752.594C626.16 752.594 628.511 751.576 630.381 749.862L632.197 752.165C629.472 754.736 626.427 755.539 623.221 755.539C616.756 755.539 612.215 750.987 612.215 744.293C612.215 737.652 616.81 733.046 623.007 733.046C628.991 733.046 633.319 737.652 633.319 744.239ZM615.848 742.74H629.846C629.419 738.669 626.747 736.099 623.061 736.099C619 736.099 616.436 738.83 615.848 742.74Z" fill="#464547"/>
<path d="M655.759 736.688V722.227H659.179V755.111H655.759V751.897C654.05 754.093 651.378 755.539 647.798 755.539C641.654 755.539 636.899 750.773 636.899 744.292C636.899 737.812 641.654 733.046 647.798 733.046C651.378 733.046 653.996 734.492 655.759 736.688ZM640.425 744.292C640.425 748.791 643.577 752.326 648.226 752.326C652.767 752.326 655.973 748.845 655.973 744.292C655.973 739.74 652.767 736.259 648.226 736.259C643.524 736.259 640.425 739.847 640.425 744.292Z" fill="#464547"/>
<path d="M699.464 744.292C699.464 750.826 694.709 755.539 688.565 755.539C684.985 755.539 682.367 754.093 680.604 751.897V755.111H677.131V722.227H680.604V736.688C682.314 734.492 684.932 733.046 688.565 733.046C694.656 733.046 699.464 737.812 699.464 744.292ZM680.39 744.292C680.39 748.898 683.596 752.326 688.137 752.326C692.786 752.326 695.885 748.738 695.885 744.292C695.885 739.847 692.732 736.259 688.137 736.259C683.596 736.259 680.39 739.687 680.39 744.292Z" fill="#464547"/>
<path d="M706.089 764.323H702.296L710.417 750.398L700.426 733.474H704.273L712.394 747.024L720.088 733.474H723.881L706.089 764.323Z" fill="#464547"/>
<path d="M158.9 336.677H866.95V499.597H158.9V336.677Z" fill="white"/>
<path fill-rule="evenodd" clip-rule="evenodd" d="M562.345 310.578L484.251 647.706H423.51L450.506 525.114H373.376C357.307 523.518 325.748 510.173 328.062 469.565C336.546 433.553 350.879 372.832 356.985 346.972C358.914 336.118 370.098 313.643 399.407 310.578H562.345ZM385.909 497.339L422.546 337.395H492.928L455.327 497.339H385.909Z" fill="#464547"/>
<path fill-rule="evenodd" clip-rule="evenodd" d="M265.393 499.255L259.608 525.115H144.877C129.922 525.115 100.72 504.619 105.348 468.607C112.29 434.128 126.88 370.597 133.308 343.142C136.843 332.606 149.698 311.344 172.837 310.578C195.976 309.812 250.61 310.259 275.034 310.578C291.895 310.799 319.855 326.86 316.492 353.677C311.864 382.792 304.28 416.888 301.066 430.297H174.765L160.303 499.255H265.393ZM181.514 404.438L197.904 337.395H266.357L249.967 404.438H181.514Z" fill="#464547"/>
<path d="M625.013 269.395L632.726 233H694.431L684.789 269.395H625.013Z" fill="#464547"/>
<path d="M679.005 309.62H617.3L569.094 523.199H629.834L679.005 309.62Z" fill="#464547"/>
<path fill-rule="evenodd" clip-rule="evenodd" d="M655.866 646.749L734.924 309.62H875.687C893.512 309.62 924.665 325.902 920.037 364.212C912.324 402.522 898.183 461.264 892.077 485.846C889.46 496.382 876.157 526.072 850.62 526.072H747.458L718.534 646.749H655.866ZM864.117 337.395H789.879L754.207 496.382H828.445L864.117 337.395Z" fill="#464547"/>
<path d="M146.684 568.861C133.018 568.861 122.492 579.735 122.492 593.441C122.492 607.148 133.018 618.016 146.684 618.016C160.35 618.016 170.876 607.148 170.876 593.441C170.876 579.735 160.35 568.861 146.684 568.861ZM146.684 608.376C138.467 608.376 132.74 601.862 132.74 593.441C132.74 585.02 138.467 578.506 146.684 578.506C154.81 578.506 160.532 585.02 160.532 593.441C160.532 601.862 154.81 608.376 146.684 608.376Z" fill="#464547"/>
<path d="M219.349 604.593L211.777 600.434C211.688 600.381 211.589 600.348 211.487 600.338C211.384 600.328 211.28 600.342 211.184 600.378C211.087 600.414 210.999 600.472 210.926 600.546C210.854 600.621 210.798 600.712 210.764 600.811C209.605 603.113 207.844 605.04 205.677 606.376C203.51 607.712 201.022 608.404 198.493 608.376C190.271 608.376 184.454 601.862 184.454 593.441C184.454 585.02 190.271 578.506 198.493 578.506C201.023 578.473 203.511 579.164 205.678 580.5C207.846 581.836 209.607 583.763 210.764 586.067C210.798 586.166 210.853 586.257 210.925 586.333C210.998 586.408 211.086 586.466 211.183 586.502C211.28 586.538 211.384 586.551 211.486 586.541C211.589 586.531 211.689 586.498 211.777 586.443L219.349 582.284C219.441 582.243 219.523 582.18 219.588 582.102C219.654 582.024 219.702 581.932 219.728 581.833C219.755 581.734 219.759 581.63 219.742 581.528C219.724 581.426 219.684 581.33 219.626 581.247C215.563 573.682 207.809 568.862 198.484 568.862C184.631 568.862 174.105 579.451 174.105 593.441C174.105 607.431 184.631 618.016 198.484 618.016C207.809 618.016 215.658 613.196 219.721 605.538C219.792 605.362 219.792 605.165 219.722 604.988C219.652 604.812 219.519 604.67 219.349 604.593Z" fill="#464547"/>
<path d="M121.29 607.618H97.6575V570.565C97.644 570.369 97.5615 570.184 97.4253 570.044C97.2893 569.905 97.1086 569.821 96.9166 569.807H88.2363C88.0447 569.82 87.865 569.905 87.7297 570.045C87.594 570.184 87.5126 570.369 87.5 570.565V608.376C87.5 613.764 90.7314 617.072 95.9941 617.072H121.29C121.482 617.059 121.663 616.975 121.798 616.835C121.934 616.695 122.015 616.51 122.027 616.314V608.376C122.015 608.18 121.934 607.995 121.798 607.855C121.663 607.716 121.482 607.631 121.29 607.618Z" fill="#464547"/>
<path d="M351.209 607.617H326.981L350.841 578.599C351.083 578.308 351.212 577.938 351.209 577.557V570.578C351.196 570.381 351.115 570.196 350.977 570.056C350.841 569.917 350.661 569.833 350.468 569.819H315.019C314.827 569.833 314.646 569.917 314.509 570.056C314.373 570.196 314.291 570.381 314.278 570.578V578.52C314.291 578.716 314.373 578.901 314.51 579.04C314.646 579.179 314.827 579.262 315.019 579.273H338.076L314.278 608.39C314.039 608.679 313.908 609.047 313.91 609.427V616.312C313.922 616.509 314.003 616.694 314.139 616.834C314.274 616.974 314.454 617.058 314.646 617.071H351.215C351.405 617.058 351.585 616.974 351.721 616.834C351.856 616.694 351.936 616.509 351.949 616.312V608.375C351.936 608.178 351.856 607.992 351.721 607.853C351.582 607.713 351.402 607.629 351.209 607.617Z" fill="#464547"/>
<path d="M306.334 552.889H297.654C297.462 552.902 297.283 552.986 297.147 553.124C297.012 553.263 296.93 553.447 296.917 553.643V562.72C296.93 562.915 297.012 563.1 297.147 563.238C297.283 563.377 297.462 563.46 297.654 563.474H300.976C301.783 563.5 302.587 563.357 303.338 563.053C304.09 562.749 304.772 562.29 305.343 561.705C305.914 561.12 306.362 560.422 306.659 559.653C306.956 558.884 307.096 558.061 307.07 557.234V553.643C307.058 553.447 306.976 553.263 306.84 553.124C306.705 552.986 306.525 552.902 306.334 552.889Z" fill="#464547"/>
<path d="M401.065 569.806H392.384C392.194 569.819 392.014 569.905 391.878 570.044C391.743 570.184 391.663 570.368 391.65 570.564V576.18C389.066 572.37 383.555 568.861 376.875 568.861C364.225 568.861 354.604 579.921 354.604 593.441C354.604 606.961 364.209 618.016 376.875 618.016C383.555 618.016 389.066 614.512 391.65 610.702V616.313C391.663 616.509 391.743 616.695 391.878 616.835C392.014 616.974 392.194 617.058 392.384 617.072H401.065C401.258 617.058 401.439 616.974 401.577 616.835C401.713 616.695 401.793 616.51 401.806 616.313V570.564C401.793 570.368 401.709 570.183 401.574 570.044C401.439 569.905 401.258 569.82 401.065 569.806ZM378.72 608.562C370.6 608.562 364.963 601.946 364.963 593.441C364.963 584.936 370.6 578.316 378.72 578.316C386.841 578.316 392.481 584.932 392.481 593.441C392.481 601.951 386.847 608.562 378.72 608.562Z" fill="#464547"/>
<path d="M268.77 569.806H260.09C259.898 569.819 259.719 569.905 259.583 570.044C259.448 570.184 259.366 570.368 259.354 570.564V576.18C256.768 572.37 251.255 568.861 244.579 568.861C231.926 568.861 222.309 579.921 222.309 593.441C222.309 606.961 231.912 618.016 244.579 618.016C251.255 618.016 256.768 614.512 259.354 610.702V616.313C259.365 616.509 259.446 616.695 259.582 616.835C259.718 616.974 259.898 617.058 260.09 617.072H268.77C268.962 617.058 269.143 616.974 269.278 616.835C269.414 616.695 269.495 616.509 269.507 616.313V570.564C269.494 570.368 269.413 570.183 269.277 570.044C269.142 569.905 268.962 569.82 268.77 569.806ZM246.424 608.562C238.298 608.562 232.667 601.946 232.667 593.441C232.667 584.936 238.298 578.316 246.424 578.316C254.55 578.316 260.181 584.932 260.181 593.441C260.181 601.951 254.532 608.562 246.406 608.562H246.424Z" fill="#464547"/>
<path d="M306.334 569.807H297.658C297.249 569.807 296.917 570.146 296.917 570.565V616.309C296.917 616.728 297.249 617.067 297.658 617.067H306.334C306.743 617.067 307.075 616.728 307.075 616.309V570.565C307.075 570.146 306.743 569.807 306.334 569.807Z" fill="#464547"/>
<path d="M287.583 552.889H278.907C278.498 552.889 278.166 553.229 278.166 553.647V616.313C278.166 616.732 278.498 617.071 278.907 617.071H287.583C287.992 617.071 288.324 616.732 288.324 616.313V553.647C288.324 553.229 287.992 552.889 287.583 552.889Z" fill="#464547"/>
</svg>
